<svg width="175" height="33" viewBox="0 0 175 33" fill="none" xmlns="http://www.w3.org/2000/svg">
<path d="M0.32 32V4H14C17.52 4 20.16 4.66666 21.92 6C23.7067 7.33333 24.6 9.09333 24.6 11.28C24.6 12.7467 24.24 14.0267 23.52 15.12C22.8 16.1867 21.8133 17.0133 20.56 17.6C19.3067 18.1867 17.8667 18.48 16.24 18.48L17 16.84C18.76 16.84 20.32 17.1333 21.68 17.72C23.04 18.28 24.0933 19.12 24.84 20.24C25.6133 21.36 26 22.7333 26 24.36C26 26.76 25.0533 28.64 23.16 30C21.2667 31.3333 18.48 32 14.8 32H0.32ZM6.76 27.12H14.32C16 27.12 17.2667 26.8533 18.12 26.32C19 25.76 19.44 24.88 19.44 23.68C19.44 22.5067 19 21.64 18.12 21.08C17.2667 20.4933 16 20.2 14.32 20.2H6.28V15.48H13.2C14.7733 15.48 15.9733 15.2133 16.8 14.68C17.6533 14.12 18.08 13.28 18.08 12.16C18.08 11.0667 17.6533 10.2533 16.8 9.72C15.9733 9.16 14.7733 8.88 13.2 8.88H6.76V27.12ZM43.6659 32V27.8L43.2659 26.88V19.36C43.2659 18.0267 42.8526 16.9867 42.0259 16.24C41.2259 15.4933 39.9859 15.12 38.3059 15.12C37.1593 15.12 36.0259 15.3067 34.9059 15.68C33.8126 16.0267 32.8793 16.5067 32.1059 17.12L29.8659 12.76C31.0393 11.9333 32.4526 11.2933 34.1059 10.84C35.7593 10.3867 37.4393 10.16 39.1459 10.16C42.4259 10.16 44.9726 10.9333 46.7859 12.48C48.5993 14.0267 49.5059 16.44 49.5059 19.72V32H43.6659ZM37.1059 32.32C35.4259 32.32 33.9859 32.04 32.7859 31.48C31.5859 30.8933 30.6659 30.1067 30.0259 29.12C29.3859 28.1333 29.0659 27.0267 29.0659 25.8C29.0659 24.52 29.3726 23.4 29.9859 22.44C30.6259 21.48 31.6259 20.7333 32.9859 20.2C34.3459 19.64 36.1193 19.36 38.3059 19.36H44.0259V23H38.9859C37.5193 23 36.5059 23.24 35.9459 23.72C35.4126 24.2 35.1459 24.8 35.1459 25.52C35.1459 26.32 35.4526 26.96 36.0659 27.44C36.7059 27.8933 37.5726 28.12 38.6659 28.12C39.7059 28.12 40.6393 27.88 41.4659 27.4C42.2926 26.8933 42.8926 26.16 43.2659 25.2L44.2259 28.08C43.7726 29.4667 42.9459 30.52 41.7459 31.24C40.5459 31.96 38.9993 32.32 37.1059 32.32ZM55.1534 32V2.32H61.3934V32H55.1534ZM67.1847 32V2.32H73.4247V32H67.1847ZM96.7841 32V9.28H87.8241V4H112.224V9.28H103.264V32H96.7841ZM115.271 32V10.48H121.511V32H115.271ZM118.391 7.48C117.244 7.48 116.311 7.14667 115.591 6.48C114.871 5.81333 114.511 4.98666 114.511 4C114.511 3.01333 114.871 2.18667 115.591 1.52C116.311 0.853331 117.244 0.519998 118.391 0.519998C119.537 0.519998 120.471 0.839998 121.191 1.48C121.911 2.09333 122.271 2.89333 122.271 3.88C122.271 4.92 121.911 5.78667 121.191 6.48C120.497 7.14667 119.564 7.48 118.391 7.48ZM137.702 32.32C135.382 32.32 133.315 31.8533 131.502 30.92C129.689 29.96 128.262 28.64 127.222 26.96C126.209 25.28 125.702 23.3733 125.702 21.24C125.702 19.08 126.209 17.1733 127.222 15.52C128.262 13.84 129.689 12.5333 131.502 11.6C133.315 10.64 135.382 10.16 137.702 10.16C139.969 10.16 141.942 10.64 143.622 11.6C145.302 12.5333 146.542 13.88 147.342 15.64L142.502 18.24C141.942 17.2267 141.235 16.48 140.382 16C139.555 15.52 138.649 15.28 137.662 15.28C136.595 15.28 135.635 15.52 134.782 16C133.929 16.48 133.249 17.16 132.742 18.04C132.262 18.92 132.022 19.9867 132.022 21.24C132.022 22.4933 132.262 23.56 132.742 24.44C133.249 25.32 133.929 26 134.782 26.48C135.635 26.96 136.595 27.2 137.662 27.2C138.649 27.2 139.555 26.9733 140.382 26.52C141.235 26.04 141.942 25.28 142.502 24.24L147.342 26.88C146.542 28.6133 145.302 29.96 143.622 30.92C141.942 31.8533 139.969 32.32 137.702 32.32ZM155.978 27.6L156.138 20L166.178 10.48H173.618L163.978 20.28L160.738 22.92L155.978 27.6ZM150.818 32V2.32H157.058V32H150.818ZM166.858 32L159.578 22.96L163.498 18.12L174.418 32H166.858Z" fill="black"/>
</svg>
